<svg width="20" height="20" viewBox="0 0 20 20" fill="#4C5867" xmlns="http://www.w3.org/2000/svg">
<path d="M9.72933 5.99985C10.7902 5.99985 11.8076 6.42127 12.5578 7.17142C13.3079 7.92157 13.7293 8.93898 13.7293 9.99985C13.7293 11.0607 13.3079 12.0781 12.5578 12.8283C11.8076 13.5784 10.7902 13.9998 9.72933 13.9998C8.66847 13.9998 7.65105 13.5784 6.9009 12.8283C6.15076 12.0781 5.72933 11.0607 5.72933 9.99985C5.72933 8.93898 6.15076 7.92157 6.9009 7.17142C7.65105 6.42127 8.66847 5.99985 9.72933 5.99985ZM9.72933 7.99985C9.1989 7.99985 8.69019 8.21056 8.31512 8.58563C7.94005 8.96071 7.72933 9.46941 7.72933 9.99985C7.72933 10.5303 7.94005 11.039 8.31512 11.4141C8.69019 11.7891 9.1989 11.9998 9.72933 11.9998C10.2598 11.9998 10.7685 11.7891 11.1435 11.4141C11.5186 11.039 11.7293 10.5303 11.7293 9.99985C11.7293 9.46941 11.5186 8.96071 11.1435 8.58563C10.7685 8.21056 10.2598 7.99985 9.72933 7.99985ZM7.72933 19.9998C7.47933 19.9998 7.26933 19.8198 7.22933 19.5798L6.85933 16.9298C6.22933 16.6798 5.68933 16.3398 5.16933 15.9398L2.67933 16.9498C2.45933 17.0298 2.18933 16.9498 2.06933 16.7298L0.0693316 13.2698C-0.0606684 13.0498 -0.000668302 12.7798 0.189332 12.6298L2.29933 10.9698L2.22933 9.99985L2.29933 8.99985L0.189332 7.36985C-0.000668302 7.21985 -0.0606684 6.94985 0.0693316 6.72985L2.06933 3.26985C2.18933 3.04985 2.45933 2.95985 2.67933 3.04985L5.16933 4.04985C5.68933 3.65985 6.22933 3.31985 6.85933 3.06985L7.22933 0.419847C7.26933 0.179847 7.47933 -0.000152588 7.72933 -0.000152588H11.7293C11.9793 -0.000152588 12.1893 0.179847 12.2293 0.419847L12.5993 3.06985C13.2293 3.31985 13.7693 3.65985 14.2893 4.04985L16.7793 3.04985C16.9993 2.95985 17.2693 3.04985 17.3893 3.26985L19.3893 6.72985C19.5193 6.94985 19.4593 7.21985 19.2693 7.36985L17.1593 8.99985L17.2293 9.99985L17.1593 10.9998L19.2693 12.6298C19.4593 12.7798 19.5193 13.0498 19.3893 13.2698L17.3893 16.7298C17.2693 16.9498 16.9993 17.0398 16.7793 16.9498L14.2893 15.9498C13.7693 16.3398 13.2293 16.6798 12.5993 16.9298L12.2293 19.5798C12.1893 19.8198 11.9793 19.9998 11.7293 19.9998H7.72933ZM8.97933 1.99985L8.60933 4.60985C7.40933 4.85985 6.34933 5.49985 5.57933 6.38985L3.16933 5.34985L2.41933 6.64985L4.52933 8.19985C4.12933 9.36985 4.12933 10.6398 4.52933 11.7998L2.40933 13.3598L3.15933 14.6598L5.58933 13.6198C6.35933 14.4998 7.40933 15.1398 8.59933 15.3798L8.96933 17.9998H10.4893L10.8593 15.3898C12.0493 15.1398 13.0993 14.4998 13.8693 13.6198L16.2993 14.6598L17.0493 13.3598L14.9293 11.8098C15.3293 10.6398 15.3293 9.36985 14.9293 8.19985L17.0393 6.64985L16.2893 5.34985L13.8793 6.38985C13.1093 5.49985 12.0493 4.85985 10.8493 4.61985L10.4793 1.99985H8.97933Z" />
</svg>
