<svg width="20" height="20" viewBox="0 0 20 20" fill="#4C5867" xmlns="http://www.w3.org/2000/svg">
<path d="M18 -0.000152588H6C5.46957 -0.000152588 4.96086 0.210561 4.58579 0.585634C4.21071 0.960706 4 1.46941 4 1.99985V13.9998C4 14.5303 4.21071 15.039 4.58579 15.4141C4.96086 15.7891 5.46957 15.9998 6 15.9998H18C18.5304 15.9998 19.0391 15.7891 19.4142 15.4141C19.7893 15.039 20 14.5303 20 13.9998V1.99985C20 1.46941 19.7893 0.960706 19.4142 0.585634C19.0391 0.210561 18.5304 -0.000152588 18 -0.000152588ZM18 13.9998H6V1.99985H18V13.9998ZM14 17.9998V19.9998H2C1.46957 19.9998 0.960859 19.7891 0.585786 19.4141C0.210714 19.039 0 18.5303 0 17.9998V4.99985H2V17.9998H14ZM16.53 6.05985L15.47 4.99985L10.59 9.87985L8.47 7.75985L7.41 8.81985L10.59 11.9998L16.53 6.05985Z" />
</svg>
