<svg width="22" height="22" viewBox="0 0 22 22" fill="#4C5867" xmlns="http://www.w3.org/2000/svg">
<path d="M15 13.9998H8V11.9998H15V13.9998ZM18 9.99985H8V7.99985H18V9.99985ZM18 5.99985H8V3.99985H18V5.99985ZM2 3.99985V19.9998H18V21.9998H2C1.46957 21.9998 0.960859 21.7891 0.585786 21.4141C0.210714 21.039 0 20.5303 0 19.9998V3.99985H2ZM20 -0.000152588C20.5304 -0.000152588 21.0391 0.210561 21.4142 0.585634C21.7893 0.960707 22 1.46941 22 1.99985V15.9998C22 17.1098 21.11 17.9998 20 17.9998H6C5.46957 17.9998 4.96086 17.7891 4.58579 17.4141C4.21071 17.039 4 16.5303 4 15.9998V1.99985C4 0.889847 4.89 -0.000152588 6 -0.000152588H20ZM6 1.99985V15.9998H20V1.99985H6Z" />
</svg>
