<svg width="22" height="20" viewBox="0 0 22 20" fill="#4C5867" xmlns="http://www.w3.org/2000/svg">
<path d="M21 9.99985V17.9998C21 18.5303 20.7893 19.039 20.4142 19.4141C20.0391 19.7891 19.5304 19.9998 19 19.9998H3C2.46957 19.9998 1.96086 19.7891 1.58579 19.4141C1.21071 19.039 1 18.5303 1 17.9998V9.99985C0.734784 9.99985 0.48043 9.89449 0.292893 9.70695C0.105357 9.51942 0 9.26506 0 8.99985V5.99985C0 5.46941 0.210714 4.96071 0.585786 4.58563C0.960859 4.21056 1.46957 3.99985 2 3.99985H5.17C5.06 3.68985 5 3.34985 5 2.99985C5 2.2042 5.31607 1.44114 5.87868 0.878527C6.44129 0.315918 7.20435 -0.000152588 8 -0.000152588C9 -0.000152588 9.88 0.499847 10.43 1.23985V1.22985L11 1.99985L11.57 1.22985V1.23985C12.12 0.499847 13 -0.000152588 14 -0.000152588C14.7956 -0.000152588 15.5587 0.315918 16.1213 0.878527C16.6839 1.44114 17 2.2042 17 2.99985C17 3.34985 16.94 3.68985 16.83 3.99985H20C20.5304 3.99985 21.0391 4.21056 21.4142 4.58563C21.7893 4.96071 22 5.46941 22 5.99985V8.99985C22 9.26506 21.8946 9.51942 21.7071 9.70695C21.5196 9.89449 21.2652 9.99985 21 9.99985ZM3 17.9998H10V9.99985H3V17.9998ZM19 17.9998V9.99985H12V17.9998H19ZM8 1.99985C7.73478 1.99985 7.48043 2.1052 7.29289 2.29274C7.10536 2.48028 7 2.73463 7 2.99985C7 3.26506 7.10536 3.51942 7.29289 3.70695C7.48043 3.89449 7.73478 3.99985 8 3.99985C8.26522 3.99985 8.51957 3.89449 8.70711 3.70695C8.89464 3.51942 9 3.26506 9 2.99985C9 2.73463 8.89464 2.48028 8.70711 2.29274C8.51957 2.1052 8.26522 1.99985 8 1.99985ZM14 1.99985C13.7348 1.99985 13.4804 2.1052 13.2929 2.29274C13.1054 2.48028 13 2.73463 13 2.99985C13 3.26506 13.1054 3.51942 13.2929 3.70695C13.4804 3.89449 13.7348 3.99985 14 3.99985C14.2652 3.99985 14.5196 3.89449 14.7071 3.70695C14.8946 3.51942 15 3.26506 15 2.99985C15 2.73463 14.8946 2.48028 14.7071 2.29274C14.5196 2.1052 14.2652 1.99985 14 1.99985ZM2 5.99985V7.99985H10V5.99985H2ZM12 5.99985V7.99985H20V5.99985H12Z" />
</svg>
