<svg width="20" height="20" viewBox="0 0 20 20" fill="#4C5867" xmlns="http://www.w3.org/2000/svg">
<path d="M17.79 13.4098C18.74 11.2398 18.74 8.74985 17.79 6.58985L15.05 7.82985C15.65 9.20985 15.65 10.7798 15.06 12.1698L17.79 13.4098ZM13.42 2.20985C11.25 1.25985 8.76 1.25985 6.59 2.20985L7.83 4.93985C9.22 4.34985 10.79 4.34985 12.18 4.94985L13.42 2.20985ZM2.21 6.57985C1.26 8.75985 1.26 11.2398 2.21 13.4198L4.95 12.1698C4.35 10.7898 4.35 9.20985 4.95 7.81985L2.21 6.57985ZM6.59 17.7898C8.76 18.7398 11.25 18.7398 13.42 17.7798L12.18 15.0498C10.8 15.6498 9.22 15.6498 7.84 15.0598L6.59 17.7898ZM10 -0.000152588C11.3132 -0.000152588 12.6136 0.258505 13.8268 0.761052C15.0401 1.2636 16.1425 2.00019 17.0711 2.92878C17.9997 3.85737 18.7362 4.95976 19.2388 6.17301C19.7413 7.38627 20 8.68663 20 9.99985C20 12.652 18.9464 15.1956 17.0711 17.0709C15.1957 18.9463 12.6522 19.9998 10 19.9998C8.68678 19.9998 7.38642 19.7412 6.17317 19.2386C4.95991 18.7361 3.85752 17.9995 2.92893 17.0709C1.05357 15.1956 0 12.652 0 9.99985C0 7.34768 1.05357 4.80414 2.92893 2.92878C4.8043 1.05342 7.34784 -0.000152588 10 -0.000152588ZM10 5.99985C8.93913 5.99985 7.92172 6.42127 7.17157 7.17142C6.42143 7.92157 6 8.93898 6 9.99985C6 11.0607 6.42143 12.0781 7.17157 12.8283C7.92172 13.5784 8.93913 13.9998 10 13.9998C11.0609 13.9998 12.0783 13.5784 12.8284 12.8283C13.5786 12.0781 14 11.0607 14 9.99985C14 8.93898 13.5786 7.92157 12.8284 7.17142C12.0783 6.42127 11.0609 5.99985 10 5.99985Z" />
</svg>
