<svg width="16" height="21" viewBox="0 0 16 21" fill="#4C5867" xmlns="http://www.w3.org/2000/svg">
<path d="M8 15.9998C6.89 15.9998 6 15.0998 6 13.9998C6 12.8898 6.89 11.9998 8 11.9998C8.53043 11.9998 9.03914 12.2106 9.41421 12.5856C9.78929 12.9607 10 13.4694 10 13.9998C10 14.5303 9.78929 15.039 9.41421 15.4141C9.03914 15.7891 8.53043 15.9998 8 15.9998ZM14 18.9998V8.99985H2V18.9998H14ZM14 6.99985C14.5304 6.99985 15.0391 7.21056 15.4142 7.58563C15.7893 7.96071 16 8.46941 16 8.99985V18.9998C16 19.5303 15.7893 20.039 15.4142 20.4141C15.0391 20.7891 14.5304 20.9998 14 20.9998H2C0.89 20.9998 0 20.0998 0 18.9998V8.99985C0 7.88985 0.89 6.99985 2 6.99985H3V4.99985C3 3.67376 3.52678 2.402 4.46447 1.46431C5.40215 0.526632 6.67392 -0.000152588 8 -0.000152588C8.65661 -0.000152588 9.30679 0.129176 9.91342 0.38045C10.52 0.631723 11.0712 1.00002 11.5355 1.46431C11.9998 1.92861 12.3681 2.4798 12.6194 3.08643C12.8707 3.69306 13 4.34324 13 4.99985V6.99985H14ZM8 1.99985C7.20435 1.99985 6.44129 2.31592 5.87868 2.87853C5.31607 3.44114 5 4.2042 5 4.99985V6.99985H11V4.99985C11 4.2042 10.6839 3.44114 10.1213 2.87853C9.55871 2.31592 8.79565 1.99985 8 1.99985Z" />
</svg>
