<svg width="18" height="18" viewBox="0 0 18 18" fill="#4C5867" xmlns="http://www.w3.org/2000/svg">
<path d="M16 -0.000152588H2C0.89 -0.000152588 0 0.889847 0 1.99985V5.99985H2V1.99985H16V15.9998H2V11.9998H0V15.9998C0 16.5303 0.210714 17.039 0.585786 17.4141C0.960859 17.7891 1.46957 17.9998 2 17.9998H16C16.5304 17.9998 17.0391 17.7891 17.4142 17.4141C17.7893 17.039 18 16.5303 18 15.9998V1.99985C18 0.889847 17.1 -0.000152588 16 -0.000152588ZM7.08 12.5798L8.5 13.9998L13.5 8.99985L8.5 3.99985L7.08 5.40985L9.67 7.99985H0V9.99985H9.67L7.08 12.5798Z" />
</svg>
