<svg width="176" height="43" viewBox="0 0 176 43" fill="none" xmlns="http://www.w3.org/2000/svg">
<path d="M63.1563 15.407C62.1507 14.8451 61.0267 14.5493 59.7549 14.5493C57.8619 14.5493 56.3535 15.2887 55.2295 16.7676L54.8746 14.6972H52.3309V34.0408H55.2591V26.6465C55.7028 27.2972 56.3239 27.8296 57.0929 28.1845C57.8619 28.569 58.7492 28.7465 59.7845 28.7465C61.0563 28.7465 62.1802 28.4507 63.1859 27.8591C64.1915 27.2676 64.9605 26.4394 65.5225 25.3451C66.0845 24.2803 66.3506 23.0084 66.3506 21.6183C66.3506 20.169 66.0549 18.8972 65.5225 17.8324C64.9309 16.7972 64.1619 15.969 63.1563 15.407ZM62.2098 24.9901C61.4704 25.8479 60.4647 26.2915 59.2521 26.2915C58.0394 26.2915 57.0633 25.8479 56.3239 24.9901C55.5845 24.1324 55.1999 22.9789 55.1999 21.5887C55.1999 20.2282 55.5845 19.1338 56.3239 18.276C57.0633 17.4479 58.0394 17.0042 59.2521 17.0042C60.4647 17.0042 61.4408 17.4183 62.2098 18.276C62.9492 19.1338 63.3337 20.2282 63.3337 21.6183C63.3337 23.0084 62.9788 24.1324 62.2098 24.9901Z" fill="#3D5C86"/>
<path d="M75.1056 15.2591C74.4845 15.6437 73.9521 16.1465 73.5676 16.7972L73.2422 14.6972H72.1183H70.6394H67.7704V17.3H70.6394V26.0253H67.7704V28.6282H70.6394H73.5676H76.8211V26.0253H73.5676V21.6479C73.5676 20.4352 73.8338 19.4296 74.3957 18.631C74.9281 17.8324 75.8155 17.4479 77.0281 17.4479H78.3295V14.6972H77.6788C76.5845 14.6972 75.7267 14.9042 75.1056 15.2591Z" fill="#3D5C86"/>
<path d="M89.8055 15.4366C88.7408 14.8451 87.4985 14.5493 86.1084 14.5493C84.7182 14.5493 83.476 14.8451 82.4112 15.4366C81.3464 16.0282 80.4886 16.8859 79.8971 17.9507C79.3055 19.0155 79.0098 20.2577 79.0098 21.6479C79.0098 23.0676 79.3055 24.3098 79.8971 25.3746C80.4886 26.4394 81.3168 27.2972 82.4112 27.8887C83.5055 28.4803 84.7182 28.776 86.1084 28.776C87.4985 28.776 88.7408 28.4803 89.8055 27.8887C90.8703 27.2972 91.7281 26.469 92.3196 25.3746C92.9112 24.3098 93.2069 23.038 93.2069 21.6479C93.2069 20.2577 92.9112 19.0155 92.3196 17.9507C91.7281 16.8859 90.8999 16.0282 89.8055 15.4366ZM89.0957 24.9901C88.3562 25.8479 87.3506 26.2915 86.1084 26.2915C84.8661 26.2915 83.89 25.8479 83.1506 24.9901C82.4112 24.1324 82.0267 23.0084 82.0267 21.6479C82.0267 20.2873 82.4112 19.1929 83.1506 18.3056C83.89 17.4479 84.8661 17.0042 86.1084 17.0042C87.3506 17.0042 88.3267 17.4479 89.0957 18.3056C89.8351 19.1634 90.2196 20.2873 90.2196 21.6479C90.2196 23.0084 89.8351 24.1324 89.0957 24.9901Z" fill="#3D5C86"/>
<path d="M102.908 14.5493C100.986 14.5493 99.507 15.2 98.4423 16.531L98.1169 14.6972H95.5732V28.5986H98.5014V21.5887C98.5014 20.169 98.8268 19.0746 99.507 18.2465C100.158 17.4479 101.075 17.0338 102.228 17.0338C103.323 17.0338 104.151 17.3887 104.713 18.069C105.275 18.7493 105.541 19.7549 105.541 21.0859V28.5986H108.499V20.938C108.499 18.6901 107.966 17.0634 106.931 16.0577C105.896 15.0521 104.535 14.5493 102.908 14.5493Z" fill="#3D5C86"/>
<path d="M115.331 25.7C115.124 25.4634 115.006 25.0789 115.006 24.5465V17.3H118.348V14.7268H115.006V11.3845H112.048V14.7268V17.3V24.8423C112.048 26.1141 112.344 27.0902 112.965 27.6817C113.586 28.3028 114.532 28.5986 115.863 28.5986H118.703V26.0254H116.484C115.922 26.0254 115.568 25.9366 115.331 25.7Z" fill="#3D5C86"/>
<path d="M143.518 25.7C143.311 25.4634 143.193 25.0789 143.193 24.5465V23.4225V22.0915V20.7606C143.193 18.6014 142.72 17.0042 141.744 16.0282C140.797 15.0521 139.555 14.5493 138.017 14.5493C136.893 14.5493 135.947 14.7859 135.148 15.2296C134.349 15.6732 133.699 16.2944 133.225 17.0929C132.841 16.2352 132.249 15.6141 131.51 15.2C130.77 14.7859 129.913 14.5789 128.937 14.5789C127.221 14.6084 125.861 15.2591 124.855 16.5606L124.53 14.7268H121.986V28.6282H124.914V21.1746C124.914 19.9324 125.21 18.9268 125.801 18.1873C126.393 17.4479 127.192 17.0634 128.168 17.0634C129.114 17.0634 129.854 17.3887 130.356 18.0098C130.859 18.631 131.096 19.5775 131.096 20.7901V28.6282H134.054V21.1155C134.054 19.8732 134.349 18.8972 134.941 18.1577C135.532 17.4479 136.331 17.0929 137.337 17.0929C138.283 17.0929 139.023 17.4183 139.496 18.0394C139.969 18.6606 140.206 19.5775 140.235 20.7606V24.8718C140.235 26.1437 140.531 27.1197 141.152 27.7113C141.773 28.3324 142.72 28.6282 144.051 28.6282H145.116V26.0549H144.613C144.08 26.0253 143.725 25.9366 143.518 25.7Z" fill="#3D5C86"/>
<path d="M156.414 15.3479C155.379 14.8155 154.196 14.5197 152.865 14.5197C151.534 14.5197 150.38 14.8155 149.345 15.407C148.31 15.9986 147.511 16.8268 146.949 17.8915C146.387 18.9563 146.092 20.2282 146.092 21.6479C146.092 23.0676 146.387 24.3099 146.979 25.3746C147.57 26.4394 148.399 27.2676 149.493 27.8591C150.558 28.4507 151.83 28.7465 153.279 28.7465C154.935 28.7465 156.325 28.3028 157.449 27.3859C158.573 26.469 159.254 25.3155 159.49 23.8958H156.562C156.355 24.6648 155.941 25.2859 155.349 25.7C154.728 26.1141 153.959 26.3507 153.072 26.3507C151.918 26.3507 151.001 25.9958 150.321 25.2859C149.641 24.5761 149.256 23.6296 149.168 22.4169V22.269H159.668C159.727 21.8845 159.756 21.5296 159.756 21.1451C159.727 19.8141 159.431 18.631 158.839 17.6549C158.218 16.6789 157.42 15.9099 156.414 15.3479ZM149.256 20.1394C149.375 19.1634 149.759 18.3648 150.469 17.8028C151.179 17.2113 152.007 16.9155 152.954 16.9155C153.989 16.9155 154.846 17.2113 155.527 17.7732C156.207 18.3352 156.621 19.1338 156.739 20.1394H149.256Z" fill="#3D5C86"/>
<path d="M172.652 10.1422V16.6197C172.179 15.969 171.558 15.4662 170.818 15.0817C170.049 14.6972 169.162 14.5197 168.156 14.5197C166.914 14.5197 165.79 14.8155 164.784 15.407C163.779 15.9986 163.01 16.8268 162.448 17.9211C161.886 18.9859 161.59 20.2577 161.59 21.6479C161.59 23.0972 161.856 24.369 162.418 25.4338C162.98 26.4986 163.749 27.3267 164.755 27.9183C165.76 28.4803 166.884 28.776 168.156 28.776C170.079 28.776 171.587 28.0366 172.682 26.5282L173.037 28.6282H175.58V10.1422H172.652ZM171.558 25.0197C170.818 25.8775 169.842 26.2915 168.63 26.2915C167.417 26.2915 166.441 25.8479 165.701 24.9901C164.962 24.1324 164.577 23.0084 164.577 21.6479C164.577 20.2873 164.962 19.1929 165.701 18.3056C166.441 17.4479 167.417 17.0042 168.63 17.0042C169.842 17.0042 170.818 17.4479 171.558 18.3056C172.297 19.1634 172.682 20.2873 172.682 21.6775C172.682 23.0676 172.327 24.1915 171.558 25.0197Z" fill="#3D5C86"/>
<path d="M11.1592 3.60564C8.02395 5.40987 5.39155 8.04226 3.55775 11.2071C0.747892 16.0282 0.00845605 21.6479 1.42817 27.031C2.84789 32.4141 6.30845 36.9394 11.1296 39.7197C11.5437 39.9563 12.0169 40.0747 12.4606 40.0747C13.3775 40.0747 14.2648 39.6014 14.7676 38.7437C15.507 37.4718 15.0634 35.8451 13.7916 35.1056C10.2127 33.0352 7.63944 29.6634 6.57465 25.6409C5.50986 21.6183 6.07184 17.4479 8.14226 13.8394C9.50282 11.4732 11.4549 9.52114 13.8211 8.16057C15.093 7.42114 15.5366 5.79438 14.7972 4.52254C14.2944 3.6648 13.407 3.19156 12.4901 3.19156C12.0465 3.25071 11.6028 3.36902 11.1592 3.60564Z" fill="url(#paint0_linear)"/>
<path d="M23.4338 12.1239C24.9423 12.1239 26.2732 12.4197 27.3972 12.9817C28.5507 13.5436 29.438 14.3422 30.0592 15.407C30.6803 16.4422 31.0056 17.6549 31.0056 19.0451C31.0056 20.4352 30.6803 21.6479 30.0592 22.6831C29.438 23.7183 28.5507 24.5169 27.3972 25.1084C26.2437 25.6704 24.9423 25.9662 23.4338 25.9662H20.2986V32.1183H15.0338V12.1239H23.4338Z" fill="#3D5C86"/>
<path d="M37.1577 21.6775C37.1577 30.2549 30.1774 37.2352 21.6 37.2352C18.8789 37.2352 16.1873 36.5254 13.8507 35.1648C12.5789 34.4254 10.9521 34.869 10.2127 36.1409C9.47322 37.4127 9.91688 39.0394 11.1887 39.7789C14.3535 41.5831 17.9324 42.5592 21.6 42.5592C33.1056 42.5592 42.4817 33.1831 42.4817 21.6775C42.4817 20.1986 41.2986 19.0155 39.8197 19.0155C38.3408 19.0155 37.1577 20.2282 37.1577 21.6775Z" fill="url(#paint1_linear)"/>
<path d="M19.4113 4.78873C20.1507 6.06056 21.7775 6.50422 23.0493 5.76479C24.3212 5.02535 24.7648 3.39859 24.0254 2.12676C23.286 0.854929 21.6592 0.411267 20.3874 1.1507C19.1155 1.89014 18.7014 3.5169 19.4113 4.78873Z" fill="#00C2BC"/>
<path d="M28.3436 7.18451C29.0831 8.45635 30.7098 8.90001 31.9817 8.16057C33.2535 7.42113 33.6972 5.79437 32.9577 4.52254C32.2183 3.25071 30.5915 2.80705 29.3197 3.54649C28.0479 4.28592 27.6042 5.91268 28.3436 7.18451Z" fill="#00C2BC"/>
<path d="M35.0873 13.8986C35.8267 15.1704 37.4535 15.6141 38.7253 14.8747C39.9971 14.1352 40.4408 12.5085 39.7014 11.2366C38.9619 9.96479 37.3352 9.52113 36.0633 10.2606C34.7915 11 34.3479 12.6268 35.0873 13.8986Z" fill="#00C2BC"/>
<path d="M37.5127 23.0085C38.2521 24.2803 39.8789 24.724 41.1507 23.9845C42.4226 23.2451 42.8662 21.6183 42.1268 20.3465C41.3874 19.0747 39.7606 18.631 38.4888 19.3704C37.2169 20.1099 36.7733 21.7366 37.5127 23.0085Z" fill="#00C2BC"/>
<defs>
<linearGradient id="paint0_linear" x1="3.09244" y1="8.6428" x2="20.0769" y2="35.8237" gradientUnits="userSpaceOnUse">
<stop stop-color="#00C2BC"/>
<stop offset="0.6564" stop-color="#00C2BC" stop-opacity="0.5"/>
<stop offset="0.6978" stop-color="#04C3BD" stop-opacity="0.4398"/>
<stop offset="0.7407" stop-color="#11C6C0" stop-opacity="0.3773"/>
<stop offset="0.7844" stop-color="#25CBC6" stop-opacity="0.3138"/>
<stop offset="0.8285" stop-color="#43D2CD" stop-opacity="0.2496"/>
<stop offset="0.873" stop-color="#68DBD7" stop-opacity="0.1848"/>
<stop offset="0.9179" stop-color="#96E6E3" stop-opacity="0.1195"/>
<stop offset="0.9621" stop-color="#CBF3F1" stop-opacity="0.0550927"/>
<stop offset="1" stop-color="white" stop-opacity="0"/>
</linearGradient>
<linearGradient id="paint1_linear" x1="15.1914" y1="44.0562" x2="41.0295" y2="19.1046" gradientUnits="userSpaceOnUse">
<stop stop-color="#00C2BC"/>
<stop offset="0.6513" stop-color="#00C2BC" stop-opacity="0.5"/>
<stop offset="0.6933" stop-color="#04C3BD" stop-opacity="0.4398"/>
<stop offset="0.7369" stop-color="#11C6C0" stop-opacity="0.3773"/>
<stop offset="0.7811" stop-color="#25CBC6" stop-opacity="0.3138"/>
<stop offset="0.8259" stop-color="#43D2CD" stop-opacity="0.2496"/>
<stop offset="0.8711" stop-color="#68DBD7" stop-opacity="0.1848"/>
<stop offset="0.9166" stop-color="#96E6E3" stop-opacity="0.1195"/>
<stop offset="0.9616" stop-color="#CBF3F1" stop-opacity="0.0550927"/>
<stop offset="1" stop-color="white" stop-opacity="0"/>
</linearGradient>
</defs>
</svg>
