<svg width="185" height="48" viewBox="0 0 185 48" fill="none" xmlns="http://www.w3.org/2000/svg">
<path d="M64.1563 17.407C63.1507 16.8451 62.0267 16.5493 60.7549 16.5493C58.8619 16.5493 57.3535 17.2887 56.2295 18.7676L55.8746 16.6972H53.3309V36.0408H56.2591V28.6465C56.7028 29.2972 57.3239 29.8296 58.0929 30.1845C58.8619 30.569 59.7492 30.7465 60.7845 30.7465C62.0563 30.7465 63.1802 30.4507 64.1859 29.8591C65.1915 29.2676 65.9605 28.4394 66.5225 27.3451C67.0845 26.2803 67.3506 25.0084 67.3506 23.6183C67.3506 22.169 67.0549 20.8972 66.5225 19.8324C65.9309 18.7972 65.1619 17.969 64.1563 17.407ZM63.2098 26.9901C62.4704 27.8479 61.4647 28.2915 60.2521 28.2915C59.0394 28.2915 58.0633 27.8479 57.3239 26.9901C56.5845 26.1324 56.1999 24.9789 56.1999 23.5887C56.1999 22.2282 56.5845 21.1338 57.3239 20.276C58.0633 19.4479 59.0394 19.0042 60.2521 19.0042C61.4647 19.0042 62.4408 19.4183 63.2098 20.276C63.9492 21.1338 64.3337 22.2282 64.3337 23.6183C64.3337 25.0084 63.9788 26.1324 63.2098 26.9901Z" fill="white"/>
<path d="M76.1056 17.2591C75.4845 17.6437 74.9521 18.1465 74.5676 18.7972L74.2422 16.6972H73.1183H71.6394H68.7704V19.3H71.6394V28.0253H68.7704V30.6282H71.6394H74.5676H77.8211V28.0253H74.5676V23.6479C74.5676 22.4352 74.8338 21.4296 75.3957 20.631C75.9281 19.8324 76.8155 19.4479 78.0281 19.4479H79.3295V16.6972H78.6788C77.5845 16.6972 76.7267 16.9042 76.1056 17.2591Z" fill="white"/>
<path d="M90.8055 17.4366C89.7408 16.8451 88.4985 16.5493 87.1084 16.5493C85.7182 16.5493 84.476 16.8451 83.4112 17.4366C82.3464 18.0282 81.4886 18.8859 80.8971 19.9507C80.3055 21.0155 80.0098 22.2577 80.0098 23.6479C80.0098 25.0676 80.3055 26.3098 80.8971 27.3746C81.4886 28.4394 82.3168 29.2972 83.4112 29.8887C84.5055 30.4803 85.7182 30.776 87.1084 30.776C88.4985 30.776 89.7408 30.4803 90.8055 29.8887C91.8703 29.2972 92.7281 28.469 93.3196 27.3746C93.9112 26.3098 94.2069 25.038 94.2069 23.6479C94.2069 22.2577 93.9112 21.0155 93.3196 19.9507C92.7281 18.8859 91.8999 18.0282 90.8055 17.4366ZM90.0957 26.9901C89.3562 27.8479 88.3506 28.2915 87.1084 28.2915C85.8661 28.2915 84.89 27.8479 84.1506 26.9901C83.4112 26.1324 83.0267 25.0084 83.0267 23.6479C83.0267 22.2873 83.4112 21.1929 84.1506 20.3056C84.89 19.4479 85.8661 19.0042 87.1084 19.0042C88.3506 19.0042 89.3267 19.4479 90.0957 20.3056C90.8351 21.1634 91.2196 22.2873 91.2196 23.6479C91.2196 25.0084 90.8351 26.1324 90.0957 26.9901Z" fill="white"/>
<path d="M103.908 16.5493C101.986 16.5493 100.507 17.2 99.4423 18.531L99.1169 16.6972H96.5732V30.5986H99.5014V23.5887C99.5014 22.169 99.8268 21.0746 100.507 20.2465C101.158 19.4479 102.075 19.0338 103.228 19.0338C104.323 19.0338 105.151 19.3887 105.713 20.069C106.275 20.7493 106.541 21.7549 106.541 23.0859V30.5986H109.499V22.938C109.499 20.6901 108.966 19.0634 107.931 18.0577C106.896 17.0521 105.535 16.5493 103.908 16.5493Z" fill="white"/>
<path d="M116.331 27.7C116.124 27.4634 116.006 27.0789 116.006 26.5465V19.3H119.348V16.7268H116.006V13.3845H113.048V16.7268V19.3V26.8423C113.048 28.1141 113.344 29.0902 113.965 29.6817C114.586 30.3028 115.532 30.5986 116.863 30.5986H119.703V28.0254H117.484C116.922 28.0254 116.568 27.9366 116.331 27.7Z" fill="white"/>
<path d="M144.518 27.7C144.311 27.4634 144.193 27.0789 144.193 26.5465V25.4225V24.0915V22.7606C144.193 20.6014 143.72 19.0042 142.744 18.0282C141.797 17.0521 140.555 16.5493 139.017 16.5493C137.893 16.5493 136.947 16.7859 136.148 17.2296C135.349 17.6732 134.699 18.2944 134.225 19.0929C133.841 18.2352 133.249 17.6141 132.51 17.2C131.77 16.7859 130.913 16.5789 129.937 16.5789C128.221 16.6084 126.861 17.2591 125.855 18.5606L125.53 16.7268H122.986V30.6282H125.914V23.1746C125.914 21.9324 126.21 20.9268 126.801 20.1873C127.393 19.4479 128.192 19.0634 129.168 19.0634C130.114 19.0634 130.854 19.3887 131.356 20.0098C131.859 20.631 132.096 21.5775 132.096 22.7901V30.6282H135.054V23.1155C135.054 21.8732 135.349 20.8972 135.941 20.1577C136.532 19.4479 137.331 19.0929 138.337 19.0929C139.283 19.0929 140.023 19.4183 140.496 20.0394C140.969 20.6606 141.206 21.5775 141.235 22.7606V26.8718C141.235 28.1437 141.531 29.1197 142.152 29.7113C142.773 30.3324 143.72 30.6282 145.051 30.6282H146.116V28.0549H145.613C145.08 28.0253 144.725 27.9366 144.518 27.7Z" fill="white"/>
<path d="M157.414 17.3479C156.379 16.8155 155.196 16.5197 153.865 16.5197C152.534 16.5197 151.38 16.8155 150.345 17.407C149.31 17.9986 148.511 18.8268 147.949 19.8915C147.387 20.9563 147.092 22.2282 147.092 23.6479C147.092 25.0676 147.387 26.3099 147.979 27.3746C148.57 28.4394 149.399 29.2676 150.493 29.8591C151.558 30.4507 152.83 30.7465 154.279 30.7465C155.935 30.7465 157.325 30.3028 158.449 29.3859C159.573 28.469 160.254 27.3155 160.49 25.8958H157.562C157.355 26.6648 156.941 27.2859 156.349 27.7C155.728 28.1141 154.959 28.3507 154.072 28.3507C152.918 28.3507 152.001 27.9958 151.321 27.2859C150.641 26.5761 150.256 25.6296 150.168 24.4169V24.269H160.668C160.727 23.8845 160.756 23.5296 160.756 23.1451C160.727 21.8141 160.431 20.631 159.839 19.6549C159.218 18.6789 158.42 17.9099 157.414 17.3479ZM150.256 22.1394C150.375 21.1634 150.759 20.3648 151.469 19.8028C152.179 19.2113 153.007 18.9155 153.954 18.9155C154.989 18.9155 155.846 19.2113 156.527 19.7732C157.207 20.3352 157.621 21.1338 157.739 22.1394H150.256Z" fill="white"/>
<path d="M173.652 12.1422V18.6197C173.179 17.969 172.558 17.4662 171.818 17.0817C171.049 16.6972 170.162 16.5197 169.156 16.5197C167.914 16.5197 166.79 16.8155 165.784 17.407C164.779 17.9986 164.01 18.8268 163.448 19.9211C162.886 20.9859 162.59 22.2577 162.59 23.6479C162.59 25.0972 162.856 26.369 163.418 27.4338C163.98 28.4986 164.749 29.3267 165.755 29.9183C166.76 30.4803 167.884 30.776 169.156 30.776C171.079 30.776 172.587 30.0366 173.682 28.5282L174.037 30.6282H176.58V12.1422H173.652ZM172.558 27.0197C171.818 27.8775 170.842 28.2915 169.63 28.2915C168.417 28.2915 167.441 27.8479 166.701 26.9901C165.962 26.1324 165.577 25.0084 165.577 23.6479C165.577 22.2873 165.962 21.1929 166.701 20.3056C167.441 19.4479 168.417 19.0042 169.63 19.0042C170.842 19.0042 171.818 19.4479 172.558 20.3056C173.297 21.1634 173.682 22.2873 173.682 23.6775C173.682 25.0676 173.327 26.1915 172.558 27.0197Z" fill="white"/>
<path d="M12.1592 5.60564C9.02395 7.40987 6.39155 10.0423 4.55775 13.2071C1.74789 18.0282 1.00846 23.6479 2.42817 29.031C3.84789 34.4141 7.30845 38.9394 12.1296 41.7197C12.5437 41.9563 13.0169 42.0747 13.4606 42.0747C14.3775 42.0747 15.2648 41.6014 15.7676 40.7437C16.507 39.4718 16.0634 37.8451 14.7916 37.1056C11.2127 35.0352 8.63944 31.6634 7.57465 27.6409C6.50986 23.6183 7.07184 19.4479 9.14226 15.8394C10.5028 13.4732 12.4549 11.5211 14.8211 10.1606C16.093 9.42114 16.5366 7.79438 15.7972 6.52254C15.2944 5.6648 14.407 5.19156 13.4901 5.19156C13.0465 5.25071 12.6028 5.36902 12.1592 5.60564Z" fill="url(#paint0_linear)"/>
<path d="M24.4338 14.1239C25.9423 14.1239 27.2732 14.4197 28.3972 14.9817C29.5507 15.5436 30.438 16.3422 31.0592 17.407C31.6803 18.4422 32.0056 19.6549 32.0056 21.0451C32.0056 22.4352 31.6803 23.6479 31.0592 24.6831C30.438 25.7183 29.5507 26.5169 28.3972 27.1084C27.2437 27.6704 25.9423 27.9662 24.4338 27.9662H21.2986V34.1183H16.0338V14.1239H24.4338Z" fill="white"/>
<path d="M38.1577 23.6775C38.1577 32.2549 31.1774 39.2352 22.6 39.2352C19.8789 39.2352 17.1873 38.5254 14.8507 37.1648C13.5789 36.4254 11.9521 36.869 11.2127 38.1409C10.4732 39.4127 10.9169 41.0394 12.1887 41.7789C15.3535 43.5831 18.9324 44.5592 22.6 44.5592C34.1056 44.5592 43.4817 35.1831 43.4817 23.6775C43.4817 22.1986 42.2986 21.0155 40.8197 21.0155C39.3408 21.0155 38.1577 22.2282 38.1577 23.6775Z" fill="url(#paint1_linear)"/>
<path d="M20.4113 6.78873C21.1507 8.06056 22.7775 8.50422 24.0493 7.76479C25.3212 7.02535 25.7648 5.39859 25.0254 4.12676C24.286 2.85493 22.6592 2.41127 21.3874 3.1507C20.1155 3.89014 19.7014 5.5169 20.4113 6.78873Z" fill="#00C2BC"/>
<path d="M29.3436 9.18451C30.0831 10.4563 31.7098 10.9 32.9817 10.1606C34.2535 9.42113 34.6972 7.79437 33.9577 6.52254C33.2183 5.25071 31.5915 4.80705 30.3197 5.54649C29.0479 6.28592 28.6042 7.91268 29.3436 9.18451Z" fill="#00C2BC"/>
<path d="M36.0873 15.8986C36.8267 17.1704 38.4535 17.6141 39.7253 16.8747C40.9971 16.1352 41.4408 14.5085 40.7014 13.2366C39.9619 11.9648 38.3352 11.5211 37.0633 12.2606C35.7915 13 35.3479 14.6268 36.0873 15.8986Z" fill="#00C2BC"/>
<path d="M38.5127 25.0085C39.2521 26.2803 40.8789 26.724 42.1507 25.9845C43.4226 25.2451 43.8662 23.6183 43.1268 22.3465C42.3874 21.0747 40.7606 20.631 39.4888 21.3704C38.2169 22.1099 37.7733 23.7366 38.5127 25.0085Z" fill="#00C2BC"/>
<defs>
<linearGradient id="paint0_linear" x1="4.09244" y1="10.6428" x2="21.0769" y2="37.8237" gradientUnits="userSpaceOnUse">
<stop stop-color="#00C2BC"/>
<stop offset="0.6564" stop-color="#00C2BC" stop-opacity="0.5"/>
<stop offset="0.6978" stop-color="#04C3BD" stop-opacity="0.4398"/>
<stop offset="0.7407" stop-color="#11C6C0" stop-opacity="0.3773"/>
<stop offset="0.7844" stop-color="#25CBC6" stop-opacity="0.3138"/>
<stop offset="0.8285" stop-color="#43D2CD" stop-opacity="0.2496"/>
<stop offset="0.873" stop-color="#68DBD7" stop-opacity="0.1848"/>
<stop offset="0.9179" stop-color="#96E6E3" stop-opacity="0.1195"/>
<stop offset="0.9621" stop-color="#CBF3F1" stop-opacity="0.0550927"/>
<stop offset="1" stop-color="white" stop-opacity="0"/>
</linearGradient>
<linearGradient id="paint1_linear" x1="16.1914" y1="46.0562" x2="42.0295" y2="21.1046" gradientUnits="userSpaceOnUse">
<stop stop-color="#00C2BC"/>
<stop offset="0.6513" stop-color="#00C2BC" stop-opacity="0.5"/>
<stop offset="0.6933" stop-color="#04C3BD" stop-opacity="0.4398"/>
<stop offset="0.7369" stop-color="#11C6C0" stop-opacity="0.3773"/>
<stop offset="0.7811" stop-color="#25CBC6" stop-opacity="0.3138"/>
<stop offset="0.8259" stop-color="#43D2CD" stop-opacity="0.2496"/>
<stop offset="0.8711" stop-color="#68DBD7" stop-opacity="0.1848"/>
<stop offset="0.9166" stop-color="#96E6E3" stop-opacity="0.1195"/>
<stop offset="0.9616" stop-color="#CBF3F1" stop-opacity="0.0550927"/>
<stop offset="1" stop-color="white" stop-opacity="0"/>
</linearGradient>
</defs>
</svg>
