<svg width="20" height="20" viewBox="0 0 20 20" fill="#4C5867" xmlns="http://www.w3.org/2000/svg">
<path d="M10 -0.000152588C8.68678 -0.000152588 7.38642 0.258505 6.17317 0.761052C4.95991 1.2636 3.85752 2.00019 2.92893 2.92878C1.05357 4.80414 0 7.34768 0 9.99985C0 12.652 1.05357 15.1956 2.92893 17.0709C3.85752 17.9995 4.95991 18.7361 6.17317 19.2386C7.38642 19.7412 8.68678 19.9998 10 19.9998C12.6522 19.9998 15.1957 18.9463 17.0711 17.0709C18.9464 15.1956 20 12.652 20 9.99985C20 8.68663 19.7413 7.38627 19.2388 6.17301C18.7362 4.95976 17.9997 3.85737 17.0711 2.92878C16.1425 2.00019 15.0401 1.2636 13.8268 0.761052C12.6136 0.258505 11.3132 -0.000152588 10 -0.000152588ZM10 6.38985C11.57 7.39985 13.42 7.99985 15.42 7.99985C16.2 7.99985 16.95 7.90985 17.67 7.73985C17.88 8.44985 18 9.20985 18 9.99985C18 14.4098 14.41 17.9998 10 17.9998C7 17.9998 4.39 16.3398 3 13.8898L4.75 11.9998V10.9998C4.75 10.6683 4.8817 10.3504 5.11612 10.116C5.35054 9.88154 5.66848 9.74985 6 9.74985C6.33152 9.74985 6.64946 9.88154 6.88388 10.116C7.1183 10.3504 7.25 10.6683 7.25 10.9998V11.9998H10V6.38985ZM14 9.74985C13.6685 9.74985 13.3505 9.88154 13.1161 10.116C12.8817 10.3504 12.75 10.6683 12.75 10.9998C12.75 11.3314 12.8817 11.6493 13.1161 11.8837C13.3505 12.1182 13.6685 12.2498 14 12.2498C14.3315 12.2498 14.6495 12.1182 14.8839 11.8837C15.1183 11.6493 15.25 11.3314 15.25 10.9998C15.25 10.6683 15.1183 10.3504 14.8839 10.116C14.6495 9.88154 14.3315 9.74985 14 9.74985Z" />
</svg>
